<svg height="512pt" fill="rgb(211, 103, 40)" viewBox="-20 0 512 512" width="512pt" xmlns="http://www.w3.org/2000/svg"><path d="m148.011719 208.617188c-4.140625 0-7.5 3.355468-7.5 7.5v15.875c0 4.140624 3.359375 7.5 7.5 7.5 4.144531 0 7.5-3.359376 7.5-7.5v-15.875c0-4.144532-3.355469-7.5-7.5-7.5zm0 0"/><path d="m323.460938 239.492188c4.140624 0 7.5-3.359376 7.5-7.5v-15.875c0-4.144532-3.359376-7.5-7.5-7.5-4.140626 0-7.5 3.355468-7.5 7.5v15.875c0 4.140624 3.359374 7.5 7.5 7.5zm0 0"/><path d="m262.324219 270.089844c-3.121094-2.726563-7.855469-2.40625-10.582031.710937-3.898438 4.457031-9.730469 7.015625-16.003907 7.015625-6.273437 0-12.109375-2.558594-16.003906-7.015625-2.726563-3.121093-7.464844-3.4375-10.585937-.710937-3.117188 2.726562-3.433594 7.464844-.710938 10.582031 6.746094 7.71875 16.699219 12.144531 27.300781 12.144531 10.601563 0 20.550781-4.425781 27.296875-12.144531 2.726563-3.117187 2.40625-7.855469-.710937-10.582031zm0 0"/><path d="m0 151.371094c0 10.597656 8.625 19.222656 19.222656 19.222656h15.023438c-3.492188 10.722656-6.121094 21.734375-7.859375 32.886719-8.859375 8.105469-14.425781 19.75-14.425781 32.675781 0 23.679688 18.675781 43.074219 42.066406 44.238281 11.984375 49.460938 43.785156 92.359375 89.070312 118.203125-1.304687 4.679688-2.070312 10.292969-2.070312 17.039063 0 15.527343 4.011718 25.09375 9.488281 30.9375-9.367187 9.683593-24.269531 29.546875-24.269531 57.925781 0 4.140625 3.355468 7.5 7.5 7.5h203.984375c4.140625 0 7.5-3.359375 7.5-7.5 0-28.425781-14.949219-48.300781-24.3125-57.964844.1875-.203125.378906-.398437.5625-.605468 5.949219-6.742188 8.964843-16.933594 8.964843-30.292969 0-6.746094-.765624-12.359375-2.066406-17.039063 45.28125-25.84375 77.085938-68.742187 89.066406-118.203125 23.394532-1.164062 42.070313-20.558593 42.070313-44.238281 0-12.925781-5.566406-24.570312-14.425781-32.675781-1.738282-11.148438-4.363282-22.164063-7.859375-32.886719h15.023437c10.597656 0 19.222656-8.625 19.222656-19.222656v-17.128906c0-10.601563-8.625-19.222657-19.222656-19.222657h-42.160156l-32.03125-88.019531c-5.882812-16.148438-21.382812-27-38.574219-27h-207.503906c-17.1875 0-32.691406 10.851562-38.574219 27l-32.03125 88.019531h-42.15625c-10.601562 0-19.222656 8.621094-19.222656 19.21875zm26.960938 84.785156c0-9.574219 4.9375-18.8125 12.832031-24.210938 3.355469-2.289062 7.171875-3.871093 11.167969-4.597656-.875 5.667969-1.484376 11.390625-1.835938 17.160156-.816406 13.390626-.222656 27.105469 1.847656 40.464844-13.640625-2.496094-24.011718-14.46875-24.011718-28.816406zm31.742187-60.285156c-1.800781 5.289062-3.371094 10.636718-4.6875 16.046875-1.820313.089843-3.632813.3125-5.429687.621093-1.746094.308594-3.464844.710938-5.136719 1.21875 1.734375-7.851562 3.949219-15.59375 6.628906-23.164062h10.511719c-.058594.144531-1.878906 5.257812-1.886719 5.277344zm110.921875 321.128906h-27.933594c2.652344-22.097656 16.394532-37.101562 22.386719-42.691406 1.820313.4375 3.683594.714844 5.546875.855468zm29.902344 0h-14.902344v-43.222656c5.0625-1.167969 10.003906-2.886719 14.785156-4.910156.039063-.015626.078125-.03125.117188-.046876zm3.992187-66.714844c-10 5.328125-27.28125 14.5-38.804687 8.46875-4.445313-2.328125-8.683594-8.210937-8.683594-23.117187 0-8.753907 1.070312-21.28125 11.265625-24.003907 8.703125-2.328124 18.800781 1.386719 26.726563 4.773438 4.21875 1.800781 11.792968 5.84375 12.039062 5.984375-.015625.03125-.03125.0625-.046875.09375-2.179687 3.988281-3.359375 8.609375-3.359375 13.152344 0 4.527343 1.164062 9.144531 3.359375 13.148437.015625.035156.03125.070313.050781.101563-.492187.277343-2.207031 1.21875-2.546875 1.398437zm53.429688 66.714844h-42.425781v-55.664062c.015624-.011719 2.199218-1.285157 2.578124-1.515626.488282.265626.988282.511719 1.496094.746094 3.617188 1.683594 7.546875 2.550782 11.535156 2.550782h11.207032c3.96875 0 7.945312-.882813 11.542968-2.554688.503907-.234375 1-.476562 1.488282-.742188.855468.507813 1.710937 1.019532 2.574218 1.515626v55.664062zm-39.292969-81.363281c-.007812-6.703125 5.726562-12.441407 12.414062-12.476563.023438 0 .042969-.003906.0625-.003906h11.207032c.019531 0 .042968.003906.0625.003906 6.714844 0 12.414062 5.789063 12.414062 12.480469 0 6.761719-5.714844 12.472656-12.476562 12.472656 0 0-11.199219 0-11.207032 0-6.695312 0-12.46875-5.785156-12.476562-12.476562zm69.191406 81.363281h-14.898437v-48.179688c2.46875 1.039063 4.96875 1.996094 7.507812 2.847657 2.402344.804687 4.902344 1.535156 7.390625 2.109375zm11.230469-56.75c-11.632813-.28125-22.613281-5.699219-32.554687-11.300781-.039063-.019531-.074219-.042969-.113282-.0625.019532-.03125.03125-.066407.050782-.101563 2.1875-4.015625 3.359374-8.574218 3.359374-13.148437 0-4.582031-1.164062-9.128907-3.359374-13.152344-.015626-.03125-.03125-.0625-.046876-.097656 3.902344-2.199219 7.914063-4.222657 12.035157-5.980469 9.832031-4.199219 28.332031-10.832031 34.859375 2.003906 1.871094 3.652344 3.136718 9.089844 3.136718 17.226563 0 9.460937-1.804687 16.503906-5.214843 20.371093-3.023438 3.425782-7.703125 4.351563-12.152344 4.242188zm31.710937 56.75h-27.941406v-41.835938c1.949219-.140624 3.8125-.421874 5.582032-.851562 6.015624 5.566406 19.726562 20.472656 22.359374 42.6875zm77.84375-255.636719c-1.773437 59.21875-34.8125 114.355469-86.152343 143.894531-6.742188-7.621093-15.925781-9.265624-22.566407-9.265624-10.414062 0-21.742187 3.957031-30.945312 8.226562-1.414062.65625-11.15625 5.757812-13.597656 7.230469-.492188-.265625-1-.511719-1.511719-.75-.007813-.003907-.015625-.007813-.023437-.011719-3.597657-1.652344-7.535157-2.53125-11.496094-2.53125h-11.207032c-4.519531 0-9.054687 1.144531-13.027343 3.292969-2.429688-1.464844-12.085938-6.535157-13.523438-7.195313-9.214843-4.28125-20.578125-8.261718-31.019531-8.261718-6.644531 0-15.828125 1.644531-22.570312 9.265624-43.234376-24.878906-73.015626-66.703124-82.761719-114.59375-6.765625-33.222656-3.511719-68.574218 9.476562-100.070312h16.300781c-8.375 18.101562-13.132812 37.40625-14.152343 57.558594-1.058594 20.992187-3.453125 47.878906 12.320312 64.453125 7.207031 7.582031 17.28125 11.425781 29.945313 11.425781 25.167968 0 41.320312-14.445312 56.945312-28.417969 16.136719-14.429687 31.382813-28.0625 57.035156-28.0625 25.648438 0 40.894532 13.632813 57.03125 28.0625 15.625 13.972657 31.777344 28.417969 56.945313 28.417969 12.667969 0 22.742187-3.84375 29.945313-11.425781 14.8125-15.585938 13.417968-42.917969 12.398437-62.871094-1.03125-20.269531-5.609375-40.503906-14.230469-59.140625h17.574219c4.046875 9.8125 7.191406 20.050781 9.355469 30.492188 2.746094 13.234374 3.917968 26.769531 3.511718 40.277343zm9.824219-49.445312c-1.3125-5.40625-2.882812-10.753907-4.683593-16.039063-.609376-1.769531-1.234376-3.53125-1.886719-5.285156h10.511719c2.679687 7.570312 4.894531 15.3125 6.625 23.160156-1.671876-.507812-3.386719-.910156-5.136719-1.214844-.933594-.164062-4.554688-.578124-5.429688-.621093zm27.054688 44.238281c0 14.347656-10.367188 26.320312-24.007813 28.816406 1.90625-12.324218 2.574219-24.835937 2.015625-37.292968-.300781-6.6875-.964843-13.617188-2.003906-20.332032 4.640625.84375 9.054687 2.847656 12.761719 5.761719 6.835937 5.367187 11.234375 13.703125 11.234375 23.046875zm-357.636719-147.332031h220.980469c4.140625 0 7.5-3.359375 7.5-7.5 0-4.144531-3.359375-7.5-7.5-7.5h-215.519531l15.171874-41.691407c3.730469-10.246093 13.566407-17.132812 24.476563-17.132812h207.503906c10.910157 0 20.746094 6.886719 24.480469 17.132812l15.171875 41.691407h-41.285156c-4.140625 0-7.5 3.355469-7.5 7.5 0 4.140625 3.359375 7.5 7.5 7.5h46.746093l9.53125 26.191406h-316.789062zm-71.875 45.414062c0-2.328125 1.894531-4.21875 4.222656-4.21875h433.027344c2.328125 0 4.222656 1.890625 4.222656 4.21875v17.132813c0 2.328125-1.894531 4.222656-4.222656 4.222656h-272.394531c-4.140625 0-7.5 3.355469-7.5 7.5 0 4.140625 3.359375 7.5 7.5 7.5h180.632812c9.5 18.148438 14.835938 37.746094 15.875 58.316406.820313 16.167969 4.167969 40.441406-8.210937 53.359375-4.324219 4.546875-10.558594 6.757813-19.070313 6.757813-19.441406 0-32.1875-11.398438-46.949219-24.597656-16.710937-14.941407-35.652343-31.878907-67.03125-31.878907-31.378906 0-50.324218 16.9375-67.035156 31.878907-14.757812 13.199218-27.507812 24.597656-46.945312 24.597656-8.511719 0-14.75-2.210938-19.070313-6.757813-12.929687-13.605469-9.070312-36.414062-8.214843-53.359375 1.039062-20.570312 6.375-40.167968 15.875-58.316406h40.144531c4.140625 0 7.5-3.359375 7.5-7.5 0-4.144531-3.359375-7.5-7.5-7.5h-130.632813c-2.328125 0-4.222656-1.894531-4.222656-4.222656zm0 0"/></svg>