<?xml version="1.0" encoding="iso-8859-1"?>
<!-- Generator: Adobe Illustrator 18.1.1, SVG Export Plug-In . SVG Version: 6.00 Build 0)  -->
<svg version="1.1" id="Capa_1" xmlns="http://www.w3.org/2000/svg" xmlns:xlink="http://www.w3.org/1999/xlink" x="0px" y="0px"
	 viewBox="0 0 18.296 18.296" style="enable-background:new 0 0 18.296 18.296;" xml:space="preserve">
<g>
	<g>
		<path style="fill:#030104;" d="M13.473,14.992c0,0,0.193-2.366-0.557-3.697c0.261-0.12,2.631-0.728,2.74-0.919
			c-0.267-0.864-2.371-1.164-3.062-1.752c-0.827-0.706-1.189-1.336-2.049-1.789c-0.498-0.262-1.869-0.144-1.869-0.144
			C7.416,5.455,6.681,5.77,6.32,5.537C5.982,5.32,4.997,4.102,4.56,4.151C4.062,4.207,3.99,4.708,3.975,5.097
			c-0.37,0.277-0.776,0.621-0.728,0.754c0,0,0.385-0.231,0.715-0.378C3.956,5.517,3.948,5.548,3.931,5.56
			c0.103,0.468,0.341,0.652,0.466,1.075C4.371,7.146,3.433,6.364,3.242,6.798c0,0,0.845,1.81,3.009,4.077
			c1.771,1.362,0.395,7.197,0.395,7.197s3.664-1.985,4.999-0.585s2.557,0.559,2.557,0.559
			C13.633,17.838,13.473,14.992,13.473,14.992z"/>
		<path style="fill:#030104;" d="M14.348,18.044l-0.147,0.001C14.247,18.063,14.295,18.067,14.348,18.044z"/>
		<path style="fill:#030104;" d="M17.819,7.301c-0.826-4.781-5.39-7.998-10.17-7.171c-4.781,0.827-7.998,5.389-7.17,10.169
			c0.473,2.736,2.238,5.116,4.722,6.365l0.435-0.867c-2.209-1.112-3.78-3.229-4.201-5.663C0.699,5.881,3.561,1.822,7.814,1.087
			s8.313,2.127,9.048,6.379c0.476,2.751-0.564,5.571-2.715,7.358l0.621,0.747C17.185,13.563,18.353,10.394,17.819,7.301z"/>
	</g>
</g>
<g>
</g>
<g>
</g>
<g>
</g>
<g>
</g>
<g>
</g>
<g>
</g>
<g>
</g>
<g>
</g>
<g>
</g>
<g>
</g>
<g>
</g>
<g>
</g>
<g>
</g>
<g>
</g>
<g>
</g>
</svg>
