<svg height="511pt" fill="red" viewBox="0 -13 511.99979 511" width="511pt" xmlns="http://www.w3.org/2000/svg"><path d="m40.527344 416.332031c.320312 3.796875 1.941406 7.324219 4.664062 10.046875l13.765625 13.761719c2.800781 2.800781 6.378907 4.351563 10.046875 4.664063v18.828124c0 19.023438 23.855469 28.902344 37.304688 15.453126l34.765625-34.761719c7.738281-7.738281 12-18.03125 12-28.972657v-46.46875l26.453125-26.453124c2.929687-2.929688 2.929687-7.683594 0-10.613282-2.933594-2.929687-7.683594-2.929687-10.613282 0l-29.148437 29.144532-68.566406 68.566406c-.445313.449218-1.179688.449218-1.628907 0l-13.765624-13.765625c-.445313-.445313-.441407-1.183594.003906-1.628907 0 0 68.566406-68.566406 68.570312-68.570312l105.613282-105.613281 15.394531 15.394531-55.503907 55.5c-2.929687 2.933594-2.929687 7.683594 0 10.613281 2.929688 2.933594 7.683594 2.933594 10.613282 0l55.503906-55.5 102.929688 102.925781v46.46875c0 10.941407 4.261718 21.234376 12 28.96875 0 0 34.714843 34.714844 34.761718 34.765626 13.394532 13.390624 37.308594 3.425781 37.308594-15.453126v-18.824218c3.796875-.320313 7.320312-1.941406 10.046875-4.667969l13.761719-13.761719c2.726562-2.726562 4.347656-6.253906 4.667968-10.046875h18.824219c19.082031 0 28.957031-23.804687 15.453125-37.308593l-34.765625-34.761719c-7.738281-7.738281-18.027343-12-28.96875-12h-46.46875l-102.929687-102.925781 100.175781-100.175782c1.011719 1.402344 2.097656 2.746094 3.269531 4.003906 7.847656 8.429688 18.621094 13.070313 30.347656 13.074219 14.847657 0 29.363282-7.570312 39.816407-20.773437 25.898437-32.699219 18.660156-84.71875 12.039062-112.816406-.652343-2.769532-2.816406-4.933594-5.585937-5.585938-17.824219-4.199219-34.550782-6.328125-49.71875-6.328125-25.84375 0-47.511719 6.234375-62.664063 18.03125-13.476562 10.492187-21.207031 25.128906-21.207031 40.160156 0 11.5625 4.535156 22.238281 12.769531 30.058594 1.351563 1.285156 2.792969 2.464844 4.300781 3.5625l-100.164062 100.164063-100.164062-100.164063c1.507812-1.097656 2.949218-2.28125 4.304687-3.566406 8.234375-7.820313 12.765625-18.496094 12.765625-30.058594 0-15.027344-7.730469-29.667969-21.207031-40.15625-31.070313-24.1875-76.476563-20.15625-112.382813-11.699219-2.769531.652344-4.933594 2.8125-5.585937 5.582032-6.617188 28.097656-13.855469 80.109374 12.03125 112.808593 10.460937 13.207031 24.980469 20.78125 39.835937 20.78125 11.710938 0 22.484375-4.636719 30.332032-13.066406 1.171874-1.261719 2.261718-2.605469 3.273437-4.011719l100.175781 100.175782-102.925781 102.925781h-46.46875c-10.945313 0-21.234375 4.261719-28.972656 12 0 0-34.722657 34.722656-34.765625 34.765625-13.519532 13.519531-3.59375 37.304687 15.453125 37.304687zm97.535156-32.4375v31.457031c0 6.933594-2.699219 13.453126-7.605469 18.355469 0 0-34.703125 34.703125-34.761719 34.765625-4.257812 4.253906-11.683593 1.152344-11.683593-4.839844v-25.6875zm289.925781 79.738281c0 5.980469-7.445312 9.074219-11.683593 4.839844l-34.761719-34.765625c-4.902344-4.902343-7.605469-11.421875-7.605469-18.355469v-31.457031l54.050781 54.050781zm14.03125-116.359374c6.933594 0 13.453125 2.699218 18.355469 7.601562l34.765625 34.765625c4.269531 4.269531 1.113281 11.679687-4.839844 11.679687h-25.691406l-54.050781-54.046874zm-72.5-316.660157c12.492188-9.726562 30.972657-14.867187 53.449219-14.867187 12.726562 0 26.742188 1.648437 41.722656 4.898437 12.230469 56.242188-1.039062 83.902344-10.226562 95.5-11.125 14.046875-33.359375 21.882813-47.410156 6.792969-7.035157-7.554688-8.964844-18.394531-8.253907-28.382812.15625-2.171876-.640625-4.300782-2.179687-5.839844-2.183594-2.183594-4.824219-2.1875-7.699219-2.203125-5.949219-.027344-12.019531-.363281-17.601563-2.632813-24.378906-9.910156-19.402343-39.5625-1.800781-53.265625zm-102.90625 172.714844 103.855469-103.855469c3.046875.882813 6.257812 1.503906 9.601562 1.855469 1.214844.132813 2.429688.234375 3.648438.289063.027344.613281.296875 3.679687.410156 4.609374.003906.019532.007813.039063.011719.0625.367187 2.957032.933594 5.824219 1.730469 8.566407l-103.863282 103.863281zm-181.015625-72.101563c-10.242187 0-20.472656-5.5-28.066406-15.089843-9.183594-11.597657-22.449219-39.257813-10.21875-95.492188 14.980469-3.25 28.996094-4.898437 41.722656-4.898437 47.3125 0 68.859375 22.382812 68.863282 43.175781 0 15.582031-12.75 25.839844-27.355469 27.472656-3.40625.378907-6.738281.003907-10.128907.125-4.195312.152344-7.507812 3.851563-7.210937 8.035157.714844 10-1.21875 20.828124-8.257813 28.386718-4.976562 5.34375-11.847656 8.285156-19.347656 8.285156zm42.265625-24.9375c0-.019531.003907-.042968.007813-.0625.191406-1.503906.339844-3.078124.414062-4.609374 4.464844-.210938 8.949219-.898438 13.246094-2.144532l314.664062 314.664063c.445313.445312.445313 1.183593 0 1.628906 0 0-13.765624 13.761719-13.765624 13.765625-.445313.445312-1.183594.441406-1.628907-.003906l-314.671875-314.671875c.800782-2.742188 1.363282-5.609375 1.734375-8.566407zm-112.484375 290.808594c-.410156-.992187-1.515625-4.457031 1.484375-7.457031l34.761719-34.765625c4.902344-4.902344 11.421875-7.601562 18.359375-7.601562h31.457031l-54.050781 54.046874h-25.691406c-4.242188 0-5.910157-3.230468-6.320313-4.222656zm0 0"/></svg>