<svg id="Capa_1" enable-background="new 0 0 512 512" height="512" viewBox="0 0 512 512" width="512" xmlns="http://www.w3.org/2000/svg"><g><g><path d="m305.771 138.126v-12.607c0-4.142-3.357-7.5-7.5-7.5s-7.5 3.358-7.5 7.5v12.607c0 4.142 3.357 7.5 7.5 7.5s7.5-3.358 7.5-7.5z"/><path d="m375 145.626c4.143 0 7.5-3.358 7.5-7.5v-12.607c0-4.142-3.357-7.5-7.5-7.5s-7.5 3.358-7.5 7.5v12.607c0 4.142 3.357 7.5 7.5 7.5z"/><path d="m370.287 179.99c2.929-2.929 2.929-7.678 0-10.606-2.93-2.929-7.678-2.929-10.607 0-6.161 6.162-14.346 9.555-23.044 9.555s-16.883-3.393-23.044-9.555c-2.93-2.929-7.678-2.929-10.607 0s-2.929 7.678 0 10.606c9.278 9.278 21.465 13.917 33.651 13.917s24.373-4.64 33.651-13.917z"/><path d="m367.584 347.891h-61.896c-4.143 0-7.5 3.358-7.5 7.5s3.357 7.5 7.5 7.5h61.896c4.143 0 7.5-3.358 7.5-7.5s-3.357-7.5-7.5-7.5z"/><path d="m331.248 158.162h10.775c4.143 0 7.5-3.358 7.5-7.5s-3.357-7.5-7.5-7.5h-3.275v-10.459c0-4.142-3.357-7.5-7.5-7.5s-7.5 3.358-7.5 7.5v17.959c0 4.142 3.357 7.5 7.5 7.5z"/><path d="m499.5 386.268h-31.825v-67.542c0-4.142-3.357-7.5-7.5-7.5s-7.5 3.358-7.5 7.5v67.542h-26.416v-140.608h5.383c11.598 0 21.033 9.435 21.033 21.033v17.033c0 4.142 3.357 7.5 7.5 7.5s7.5-3.358 7.5-7.5v-17.033c0-19.869-16.164-36.033-36.033-36.033h-63.708v-2.303c24.608-6.139 43.501-26.837 46.984-52.378h5.969c14.123 0 25.613-11.49 25.613-25.613v-12.065c0-6.719-2.604-12.838-6.852-17.412v-54.502c0-22.077-17.961-40.037-40.037-40.037h-36.041c-6.353-7.741-15.99-12.689-26.762-12.689h-84.838c-10.116 0-18.346 8.23-18.346 18.346v88.882c-4.248 4.573-6.852 10.693-6.852 17.412v12.065c0 14.123 11.49 25.613 25.613 25.613h5.969c3.483 25.541 22.377 46.238 46.984 52.378v2.303h-63.708c-19.869 0-36.033 16.164-36.033 36.033v67.118h-7.1l-12.695-38.911c-3.413-10.461-13.1-17.49-24.104-17.49h-24.925v-16.334h21.351c6.104 0 11.071-4.966 11.071-11.071v-40.036c0-6.104-4.967-11.071-11.071-11.071h-93.955c-6.104 0-11.071 4.967-11.071 11.071v40.036c0 6.104 4.966 11.071 11.071 11.071h26.27v16.334h-32.662c-7.417 0-13.452 6.034-13.452 13.452v95.406h-31.825c-6.893 0-12.5 5.607-12.5 12.5v24.254c0 6.893 5.607 12.5 12.5 12.5h10.665v50.317c0 6.893 5.607 12.5 12.5 12.5h440.67c6.893 0 12.5-5.607 12.5-12.5v-50.317h10.665c6.893 0 12.5-5.607 12.5-12.5v-24.254c0-6.893-5.607-12.5-12.5-12.5zm-105.26-140.608h17.019v64.629h-17.019zm37.26-107.359v12.065c0 5.852-4.761 10.613-10.613 10.613h-5.375v-33.292h5.375c5.852.001 10.613 4.762 10.613 10.614zm-31.889-96.951c13.806 0 25.037 11.231 25.037 25.037v46.579c-1.228-.182-2.484-.279-3.762-.279h-5.375v-7.08c0-16.696-13.583-30.279-30.279-30.279h-13.812v-27.053c0-2.371-.241-4.687-.697-6.925zm-141.851 119.63h-5.375c-5.852 0-10.613-4.761-10.613-10.613v-12.065c0-5.852 4.761-10.613 10.613-10.613h5.375zm0-55.372v7.08h-5.375c-1.278 0-2.533.097-3.761.279v-80.96c0-1.845 1.501-3.346 3.346-3.346h84.838c10.814 0 19.613 8.799 19.613 19.614v27.054h-68.382c-16.696 0-30.279 13.583-30.279 30.279zm15 61.852v-61.852c0-8.425 6.854-15.279 15.279-15.279h97.193c8.425 0 15.279 6.854 15.279 15.279v61.852c0 26.338-21.428 47.766-47.766 47.766h-32.221c-26.337 0-47.764-21.428-47.764-47.766zm80.174 62.761v26.62c0 7.011-5.704 12.715-12.715 12.715h-7.166c-7.011 0-12.715-5.704-12.715-12.715v-26.62c.063 0 .125.005.188.005h32.221c.062 0 .124-.005.187-.005zm-58.903 15.439h11.307v11.181c0 15.282 12.433 27.715 27.715 27.715h7.166c15.282 0 27.715-12.433 27.715-27.715v-11.181h11.307v64.629h-85.209v-64.629zm-32.018 0h17.019v64.629h-17.019zm0 79.63h149.246v60.978h-137.61v-21.15c0-9.816-4.544-18.586-11.636-24.331zm-41.416-58.597c0-11.598 9.436-21.033 21.033-21.033h5.383v64.629 23.871c-1.524-.229-3.083-.35-4.67-.35h-21.746zm-152.498-20.617v-32.178h86.096v32.178zm53.674 15v16.334h-16.334v-16.334zm-62.448 87.735h65.675c4.142 0 7.5-3.358 7.5-7.5s-3.358-7.5-7.5-7.5h-65.675v-41.401h102.373c4.494 0 8.45 2.871 9.844 7.143l11.176 34.258h-22.718c-4.142 0-7.5 3.358-7.5 7.5s3.358 7.5 7.5 7.5h82.343c8.991 0 16.306 7.315 16.306 16.306v21.15h-199.324zm437.675 71.711h-118c-4.143 0-7.5 3.358-7.5 7.5s3.357 7.5 7.5 7.5h94.835v47.817h-435.67v-47.817h305.835c4.143 0 7.5-3.358 7.5-7.5s-3.357-7.5-7.5-7.5h-329v-19.254h482z"/></g></g></svg>