<?xml version="1.0" encoding="iso-8859-1"?>
<!-- Generator: Adobe Illustrator 19.0.0, SVG Export Plug-In . SVG Version: 6.00 Build 0)  -->
<svg version="1.1" id="Capa_1" xmlns="http://www.w3.org/2000/svg" xmlns:xlink="http://www.w3.org/1999/xlink" x="0px" y="0px" fill="green"
	 viewBox="0 0 480 480" style="enable-background:new 0 0 480 480;" xml:space="preserve">
<g>
	<g>
		<g>
			<path d="M424,264.176c0-0.064,0-0.112,0-0.176V48c0-4.418-3.582-8-8-8h-32c-4.418,0-8,3.582-8,8v16h-16v16h16v120h-8v-24
				c-0.055-14.547-9.914-27.227-24-30.864V96c-0.043-10.887-7.409-20.381-17.944-23.128L307.24,16.408
				C303.972,6.609,294.802,0,284.472,0h-13.84c-6.371-0.02-12.485,2.512-16.976,7.032l-5.512,5.512
				c-1.7,1.688-4.063,2.532-6.448,2.304c-2.632-0.324-4.96-1.864-6.288-4.16C230.957,4.011,223.464,0.001,215.44,0H202.4
				c-9.482,0.001-18.075,5.584-21.928,14.248l-25.984,58.448C143.674,75.248,136.025,84.889,136,96v48.064
				c-17.398,0.348-31.329,14.535-31.36,31.936v24H88c-4.418,0-8,3.582-8,8v16c0.016,15.017,10.458,28.01,25.12,31.256
				c0.08,0.256,0.216,0.488,0.304,0.744H80c-22.08,0.026-39.974,17.92-40,40v176c0,4.418,3.582,8,8,8h384c4.418,0,8-3.582,8-8V296
				C439.971,283.466,434.044,271.676,424,264.176z M392,230.16c0.413-2.028,0.627-4.091,0.64-6.16v-16
				c-0.001-1.075-0.219-2.139-0.64-3.128V56h16v200h-16V230.16z M195.088,20.744c1.286-2.887,4.152-4.746,7.312-4.744h13.04
				c2.931,0.07,5.614,1.661,7.08,4.2c7.354,11.027,22.256,14.005,33.283,6.651c1.313-0.876,2.537-1.879,3.653-2.995l5.512-5.512
				c1.502-1.502,3.54-2.346,5.664-2.344h13.84c3.442,0.003,6.496,2.206,7.584,5.472L308.896,72H172.312L195.088,20.744z M152,96
				c0-4.418,3.582-8,8-8h160c4.418,0,8,3.582,8,8v32H152V96z M328,144v24c0,4.418-3.582,8-8,8h-8v-32H328z M282.344,306.296
				L240,348.688l-42.344-42.344c-3.124-3.123-8.188-3.123-11.312,0L168,324.688V272h12.184c0.48,0.712,1.048,1.336,1.544,2.032
				c0.8,1.144,1.664,2.256,2.544,3.344c1.056,1.296,2.16,2.536,3.296,3.752c0.944,1.008,1.888,2.008,2.888,2.952
				c1.208,1.152,2.472,2.232,3.752,3.288c1.056,0.872,2.088,1.744,3.2,2.544c1.36,1,2.776,1.912,4.208,2.816
				c1.12,0.704,2.224,1.44,3.384,2.088c1.52,0.848,3.096,1.6,4.672,2.312c0.88,0.408,1.712,0.912,2.608,1.288l20.576,41.16
				c1.971,3.954,6.774,5.562,10.729,3.591c1.555-0.775,2.816-2.036,3.591-3.591l20.56-41.176c0.944-0.392,1.816-0.92,2.736-1.352
				c1.512-0.712,3.032-1.408,4.488-2.216c1.232-0.688,2.4-1.464,3.6-2.224c1.344-0.848,2.68-1.704,4-2.648
				c1.32-0.944,2.288-1.792,3.408-2.72c1.12-0.928,2.4-2,3.52-3.072c1.12-1.072,2.08-2.08,3.08-3.2c1-1.12,2.112-2.304,3.104-3.528
				c0.992-1.224,1.8-2.296,2.656-3.488c0.488-0.688,1.048-1.296,1.52-2H312v52.688l-18.344-18.344
				C290.532,303.173,285.468,303.173,282.344,306.296z M292.688,328H288v72h-96v-76.688l42.344,42.344
				c3.124,3.123,8.188,3.123,11.312,0L288,323.312L292.688,328z M160.002,351.998c2.121,0,4.154-0.843,5.654-2.342L176,339.312V432
				h-32V272h8v72C152.001,348.418,155.583,351.999,160.002,351.998z M208,208h24v8c0,4.418-3.582,8-8,8h-24v16h24
				c5.923-0.021,11.627-2.245,16-6.24c4.373,3.995,10.077,6.219,16,6.24h24v-16h-24c-4.418,0-8-3.582-8-8v-8h24c4.418,0,8-3.582,8-8
				v-56h16v88c0.021,9.843-2.598,19.512-7.584,28c-6.8,11.755-17.663,20.618-30.544,24.92l-1.032-0.512l-0.52,1.04
				c-10.613,3.409-22.027,3.409-32.64,0l-0.52-1.04l-1.032,0.512c-12.906-4.326-23.787-13.216-30.6-25
				c-4.952-8.47-7.551-18.109-7.528-27.92v-88h16v56C200,204.418,203.582,208,208,208z M240,176c4.418,0,8-3.582,8-8v-24h16v48h-48
				v-48h16v16h-8v16H240z M247.28,303.544L240,318.112l-7.28-14.568c2.417,0.277,4.847,0.429,7.28,0.456
				C242.433,303.973,244.863,303.821,247.28,303.544z M152,144h16v32h-8c-4.418,0-8-3.582-8-8V144z M128,464H56V296
				c0-13.255,10.745-24,24-24h48V464z M120,248c0-4.418-3.582-8-8-8c-8.837,0-16-7.163-16-16v-8h16.64c4.418,0,8-3.582,8-8v-32
				c0.027-8.568,6.799-15.593,15.36-15.936V168c0,13.255,10.745,24,24,24h8v40c0.039,8.186,1.484,16.304,4.272,24H128
				C123.582,256,120,252.418,120,248z M336,464H144v-16h40c4.418,0,8-3.582,8-8v-24h96v24c0,4.418,3.582,8,8,8h40V464z M336,312v120
				h-32v-92.688l10.344,10.344c3.125,3.124,8.19,3.123,11.314-0.002c1.499-1.5,2.342-3.534,2.342-5.654v-72h8V312z M344.64,256
				h-36.92c2.791-7.696,4.239-15.814,4.28-24v-40h8c13.255,0,24-10.745,24-24v-5.776c4.934,2.835,7.983,8.085,8,13.776v32
				c0,4.418,3.582,8,8,8h16v12.232c-1.899,6.925-8.179,11.736-15.36,11.768c-4.418,0-8,3.582-8,8S349.058,256,344.64,256z
				 M376,251.96V256h-8.8c0.088-0.256,0.224-0.488,0.304-0.744C370.48,254.573,373.342,253.463,376,251.96z M352,320h4l12,16h-16
				V320z M424,464h-72v-16h24v-16h-24v-16h24v-16h-24v-16h24v-16h-24v-16h72V464z M424,336h-36l-21.6-28.8
				c-1.511-2.014-3.882-3.2-6.4-3.2h-8v-32h48c13.255,0,24,10.745,24,24V336z"/>
			<rect x="152" y="400" width="16" height="16"/>
			<rect x="312" y="400" width="16" height="16"/>
		</g>
	</g>
</g>
<g>
</g>
<g>
</g>
<g>
</g>
<g>
</g>
<g>
</g>
<g>
</g>
<g>
</g>
<g>
</g>
<g>
</g>
<g>
</g>
<g>
</g>
<g>
</g>
<g>
</g>
<g>
</g>
<g>
</g>
</svg>
