<svg id="Layer_5" fill = "blue" enable-background="new 0 0 64 64" height="512" viewBox="0 0 64 64" width="512" xmlns="http://www.w3.org/2000/svg"><g><path d="m58.414 47 2.873-2.873-4.752-7.127h-14.616c1.909-2.126 3.081-4.925 3.081-8v-.184c1.161-.414 2-1.514 2-2.816v-9.589c2.928-1.19 5-4.061 5-7.411 0-4.411-3.589-8-8-8s-8 3.589-8 8c0 3.35 2.072 6.221 5 7.411v2.589c-2.206 0-4 1.794-4 4v6c0 2.206-1.794 4-4 4h-6.271l-.469-1.458c.871-.671 1.577-1.54 2.055-2.542h.685c2.206 0 4-1.794 4-4v-9-3c0-1.103-.897-2-2-2h-12.117c-4.347 0-7.883 3.536-7.883 7.883 0 .85.137 1.689.404 2.493l.41 1.232c-.504.668-.814 1.491-.814 2.392 0 2.206 1.794 4 4 4h.685c.478 1.001 1.184 1.871 2.055 2.542l-.488 1.517-3.999.333c-4.628.386-8.253 4.325-8.253 8.969v4.639h-4v16h62v-16zm-16.282-4h-4.263l2.131-3.197zm8.391 2-2.523 6.307-2.523-6.307zm-4.655-2 2.132-3.197 2.132 3.197zm10.132-3.197 2.131 3.197h-4.263zm-4 2.394-2.132-3.197h4.263zm-8 0-2.132-3.197h4.263zm-9.287 1.93 2.873 2.873h-4.586v-6c1.536 0 3-.301 4.35-.829zm3.701.873h4.908l3.047 7.618c-.395-.187-.765-.428-1.077-.739zm14.263 0h4.908l-6.878 6.879c-.312.311-.682.553-1.077.739zm-14.677-36c0-3.309 2.691-6 6-6s6 2.691 6 6-2.691 6-6 6-6-2.691-6-6zm6 8c.339 0 .672-.028 1-.069v9.069c0 .551-.448 1-1 1s-1-.449-1-1v-9.069c.328.041.661.069 1 .069zm-3 4v4h-2v-2c0-1.103.897-2 2-2zm-2 8v-2h2.184c.302.847.969 1.514 1.816 1.816v.184c0 5.514-4.486 10-10 10h-2v8h-6.026c-.275-.363-.597-.685-.959-.962l4.663-11.038h4.322c3.309 0 6-2.691 6-6zm-21.379 6.035 3.162 3.162-1.065 2.129-2.201-5.282zm8.793-.035h.093l-2.239 5.3-1.052-2.103zm-4.718 10.07-.961-2.305 1.265-2.529 1.244 2.488-1.031 2.442c-.169-.043-.342-.071-.517-.096zm-.696 1.93c1.654 0 3 1.346 3 3v1h-4v-4zm8-26.101c.743-.152 1.416-.482 2-.924v1.582c-.591-.345-1.268-.557-2-.557zm0 6.101h-.08c.047-.328.08-.66.08-1v-3c1.103 0 2 .897 2 2s-.897 2-2 2zm-14 0c-1.103 0-2-.897-2-2s.897-2 2-2v3c0 .34.033.672.08 1zm.143-6h-.143c-.535 0-1.045.11-1.512.301l-.186-.559c-.2-.6-.302-1.226-.302-1.86 0-3.243 2.639-5.882 5.883-5.882h12.117v3c0 1.654-1.346 3-3 3h-6c-.552 0-1-.449-1-1s.448-1 1-1h1v-2h-1c-1.371 0-2.517.93-2.874 2.188l-.338.085c-1.855.463-3.23 1.926-3.645 3.727zm1.857 5v-3.877c0-1.376.93-2.569 2.263-2.907.468 1.049 1.516 1.784 2.737 1.784h5v5c0 2.757-2.243 5-5 5s-5-2.243-5-5zm5 7c.874 0 1.707-.168 2.479-.462l.382 1.187-2.861 2.861-2.861-2.861.382-1.187c.772.294 1.605.462 2.479.462zm-15 9.361c0-3.611 2.819-6.675 6.419-6.976l2.005-.167 4.076 9.782h-6.5v-5h-2v5.586l-1.707 1.707 1.414 1.414 1.707-1.707h5.586v4h-7c-2.206 0-4-1.794-4-4zm-1.65 6.639c.826 2.327 3.043 4 5.65 4h15v-3c0-.342-.035-.677-.101-1h13.687l4.293 4.293c1.085 1.085 2.587 1.707 4.121 1.707s3.036-.622 4.121-1.707l4.293-4.293h4.586v8h-58v-8zm-2.35 12v-2h58v2z"/><path d="m48 9c0-2.206-1.794-4-4-4s-4 1.794-4 4 1.794 4 4 4 4-1.794 4-4zm-6 0c0-1.103.897-2 2-2s2 .897 2 2-.897 2-2 2-2-.897-2-2z"/></g></svg>