<svg height="511pt" fill="rgb(174,132,25)" viewBox="0 1 511 511.99901" width="511pt" xmlns="http://www.w3.org/2000/svg"><path d="m461.003906 403.121094c-.367187-.226563-.757812-.429688-1.160156-.613282-13.609375-7.148437-29.082031-11.199218-45.492188-11.199218h-12.125c7.582032-9.390625 11.835938-21.203125 11.835938-33.378906 0-3.3125-.308594-6.632813-.914062-9.867188-1.625-8.625.511718-17.433594 5.867187-24.164062 7.425781-9.335938 11.515625-21.058594 11.515625-33.011719 0-9.320313-2.457031-18.496094-7.101562-26.527344-5.28125-9.136719-6.003907-19.917969-1.941407-28.851563 3.148438-6.917968 4.742188-14.300781 4.742188-21.949218 0-10.4375-3.03125-20.542969-8.765625-29.21875-4.714844-7.132813-6.402344-15.859375-4.628906-23.949219.816406-3.722656 1.226562-7.558594 1.226562-11.398437 0-12.722657-4.574219-25.027344-12.878906-34.648438-6.230469-7.214844-8.921875-16.195312-7.382813-24.632812.863281-4.75 1.078125-9.628907.628907-14.503907-2.277344-24.894531-21.976563-44.988281-46.832032-47.769531-.453125-.054688-.910156-.097656-1.371094-.136719-7.515624-.652343-14.738281-4.328125-20.332031-10.355469-10.007812-10.765624-24.175781-16.945312-38.867187-16.945312-11.089844 0-21.652344 3.375-30.523438 9.640625-8.871094-6.265625-19.433594-9.640625-30.519531-9.640625-14.695313 0-28.859375 6.179688-38.867187 16.949219-5.597657 6.023437-12.820313 9.699219-20.339844 10.351562-.457032.039063-.910156.085938-1.355469.136719-24.867187 2.78125-44.566406 22.875-46.84375 47.773438-.445313 4.871093-.234375 9.75.628906 14.5 1.539063 8.4375-1.152343 17.417968-7.382812 24.632812-8.304688 9.621094-12.878907 21.929688-12.878907 34.652344 0 3.839844.414063 7.671875 1.226563 11.394531 1.773437 8.089844.085937 16.816406-4.625 23.953125-5.738281 8.675781-8.769531 18.777344-8.769531 29.214844 0 7.648437 1.59375 15.03125 4.742187 21.949218 4.0625 8.933594 3.339844 19.71875-1.941406 28.851563-4.644531 8.03125-7.101563 17.207031-7.101563 26.53125 0 11.949219 4.089844 23.671875 11.515626 33.011719 5.296874 6.660156 7.410156 15.609375 5.796874 24.558594-.773437 4.292968-1.019531 8.703124-.722656 13.105468.75 11.210938 5.039063 21.492188 11.742188 29.742188h-12.164063c-54.117187 0-98.144531 44.027344-98.144531 98.144531v12.527344c0 5.523437 4.476562 10 10 10s10-4.476563 10-10v-12.527344c0-43.089844 35.054688-78.144531 78.144531-78.144531h67.574219c6.703125 0 13.105469-1.28125 18.996094-3.59375 6.566406 33.359375 36.027344 58.605468 71.28125 58.605468 35.257812 0 64.71875-25.246093 71.285156-58.609374 5.890625 2.3125 12.296875 3.597656 18.996094 3.597656h4.699218l-14.195312 50.75c-1.488281 5.316406 1.617188 10.835937 6.933594 12.324218.902344.25 1.808594.371094 2.699218.371094 4.375 0 8.390626-2.890625 9.625-7.308594l15.703126-56.140624h27.492187l-24.859375 87.972656c-1.503906 5.3125 1.589844 10.839844 6.902344 12.339844.910156.257812 1.824218.382812 2.726562.382812 4.359375 0 8.371094-2.878906 9.617188-7.285156l26-92c.109375-.382813.183594-.769532.246094-1.152344 8.214843.628906 16.074218 2.523438 23.386718 5.507812l-23.859375 82.117188c-1.542969 5.304688 1.507813 10.851562 6.8125 12.394531.933594.269531 1.871094.398438 2.792969.398438 4.335938 0 8.328125-2.839844 9.601562-7.210938l22.515626-77.492187c18.75 14.285156 30.878906 36.835937 30.878906 62.175781v12.527344c0 5.519531 4.476562 10 10 10 5.523437 0 10-4.480469 10-10v-12.527344c0-37.242187-20.851563-69.707031-51.492188-86.332031zm-278.113281-106.675782c-8.660156-13.804687-13.316406-29.800781-13.316406-46.394531v-16.964843c0-5.519532-4.476563-10-10-10-8.234375 0-14.933594-6.695313-14.933594-14.933594v-13.675782c0-8.230468 6.699219-14.929687 14.933594-14.929687 5.523437 0 10-4.480469 10-10v-4.085937c0-47.933594 38.996093-86.929688 86.929687-86.929688s86.929688 38.996094 86.929688 86.929688v4.085937c0 5.519531 4.476562 10 10 10 8.226562 0 14.917968 6.691406 14.917968 14.917969v13.699218c0 8.230469-6.691406 14.921876-14.917968 14.921876-5.523438 0-10 4.476562-10 10v18.070312c0 16.339844-4.570313 32.070312-13.058594 45.664062-4.445312-6.339843-10.832031-11.132812-18.359375-13.597656l-10.738281-3.515625c-29.296875-9.59375-60.265625-9.59375-89.5625 0l-10.734375 3.515625c-7.378907 2.417969-13.660157 7.074219-18.089844 13.222656zm14.265625 15.269532c1.773438-4.519532 5.4375-7.976563 10.046875-9.484375l10.734375-3.515625c12.613281-4.128906 25.585938-6.191406 38.558594-6.191406s25.945312 2.0625 38.558594 6.191406l10.734374 3.515625c4.613282 1.511719 8.277344 4.96875 10.050782 9.484375 1.777344 4.515625 1.445312 9.542968-.90625 13.789062-12.894532 23.28125-33.558594 41.003906-58.4375 50.207032-24.875-9.203126-45.539063-26.925782-58.433594-50.207032-2.351562-4.246094-2.683594-9.273437-.90625-13.789062zm59.339844 134.605468c-28.519532 0-51.800782-22.796874-52.617188-51.125 5.234375-5.460937 9.292969-12.046874 11.773438-19.363281 11.269531 8.585938 23.957031 15.355469 37.660156 19.957031 1.035156.347657 2.109375.523438 3.183594.523438 1.078125 0 2.152344-.175781 3.1875-.523438 13.707031-4.601562 26.394531-11.371093 37.660156-19.960937 2.480469 7.316406 6.539062 13.90625 11.773438 19.367187-.816407 28.328126-24.097657 51.125-52.621094 51.125zm58.105468-86.289062c6.832032-7.488281 12.824219-15.808594 17.828126-24.835938 2.359374-4.265624 3.800781-8.882812 4.320312-13.589843 17.230469-19.464844 26.683594-44.332031 26.683594-70.449219v-9.527344c14.398437-4.3125 24.917968-17.679687 24.917968-33.460937v-13.699219c0-15.816406-10.566406-29.210938-25.011718-33.492188-2.355469-56.890624-49.375-102.445312-106.835938-102.445312-57.457031 0-104.472656 45.558594-106.835937 102.445312-14.453125 4.28125-25.023438 17.679688-25.023438 33.503907v13.675781c0 15.785156 10.527344 29.160156 24.929688 33.472656v8.421875c0 26.179688 9.421875 51.15625 26.597656 70.761719.4375 4.984375 1.902344 9.878906 4.398437 14.382812 5 9.03125 10.992188 17.351563 17.824219 24.839844-.492187 17.328125-14.730469 31.273438-32.175781 31.273438h-14.457031c-.6875-.203125-1.40625-.34375-2.152344-.394532-16.339844-1.144531-29.492187-14.335937-30.585937-30.6875-.1875-2.769531-.035157-5.535156.449218-8.21875 2.636719-14.609374-.945312-29.394531-9.824218-40.558593-4.691407-5.894531-7.167969-13.007813-7.167969-20.5625 0-5.8125 1.523437-11.523438 4.414062-16.519531 8.507813-14.71875 9.566407-32.339844 2.832031-47.144532-1.957031-4.296875-2.949218-8.894531-2.949218-13.664062 0-6.503906 1.886718-12.792969 5.453125-18.191406 7.679687-11.613282 10.40625-25.925782 7.480469-39.265626-.507813-2.316406-.765626-4.707031-.765626-7.109374 0-7.925782 2.847657-15.589844 8.019532-21.578126 10.203125-11.820312 14.550781-26.867187 11.921875-41.289062-.539063-2.964844-.671875-6.027344-.390625-9.097656 1.417968-15.488282 13.675781-27.984375 29.167968-29.71875.285157-.035156.570313-.0625.847657-.085938 12.46875-1.078125 24.277343-7 33.257812-16.664062 6.324219-6.808594 14.925781-10.558594 24.214844-10.558594 8.859375 0 17.179687 3.457031 23.433594 9.738281 1.878906 1.886719 4.425781 2.945313 7.085937 2.945313s5.210938-1.058594 7.089844-2.945313c6.25-6.28125 14.574219-9.738281 23.433594-9.738281 9.289062 0 17.886718 3.75 24.214844 10.5625 8.980468 9.664062 20.792968 15.582031 33.253906 16.664062.28125.023438.566406.050782.863281.085938 15.480469 1.730469 27.738281 14.230469 29.15625 29.71875.28125 3.070312.148437 6.128906-.390625 9.097656-2.628906 14.421875 1.71875 29.46875 11.921875 41.285156 5.171875 5.992188 8.019531 13.65625 8.019531 21.582032 0 2.402344-.257812 4.792968-.765625 7.109375-2.925781 13.339843-.199219 27.652343 7.480469 39.265625 3.566406 5.398437 5.449219 11.6875 5.449219 18.1875 0 4.773437-.992188 9.367187-2.945313 13.667968-6.734375 14.800782-5.679687 32.425782 2.832032 47.144532 2.886718 4.996094 4.414062 10.707031 4.414062 16.519531 0 7.554687-2.476562 14.664063-7.167969 20.5625-8.972656 11.28125-12.570312 25.972656-9.871093 40.3125.382812 2.019531.574218 4.09375.574218 6.167969 0 9.265625-3.734375 17.855468-10.515625 24.179687-6.769531 6.324219-15.621093 9.457031-24.925781 8.804688-1.21875-.082031-2.402344.066406-3.507812.394531h-8.335938c-17.449219-.003906-31.6875-13.953125-32.179688-31.28125zm0 0"/><path d="m200.359375 172.296875h35.1875c6.160156 0 11.175781 5.011719 11.175781 11.171875v61.433594c0 5.523437 4.476563 10 10 10 5.519532 0 10-4.476563 10-10v-61.433594c0-17.1875-13.988281-31.171875-31.175781-31.171875h-35.1875c-5.523437 0-10 4.476563-10 10 0 5.519531 4.476563 10 10 10zm0 0"/><path d="m256.496094 333.628906c8.273437 0 16.046875-3.222656 21.894531-9.066406 3.902344-3.90625 3.902344-10.238281 0-14.144531-3.90625-3.902344-10.238281-3.902344-14.144531 0-2.066406 2.070312-4.820313 3.210937-7.746094 3.210937-2.929688 0-5.679688-1.140625-7.75-3.210937-3.90625-3.902344-10.238281-3.902344-14.140625 0-3.90625 3.90625-3.90625 10.234375 0 14.144531 5.84375 5.84375 13.617187 9.066406 21.886719 9.066406zm0 0"/><path d="m231 215.132812c3.90625-3.90625 3.90625-10.238281 0-14.144531-3.902344-3.902343-10.234375-3.902343-14.140625 0-4.273437 4.273438-11.226563 4.273438-15.5 0-3.902344-3.902343-10.234375-3.902343-14.140625 0-3.90625 3.90625-3.90625 10.238281 0 14.144531 6.035156 6.035157 13.960938 9.050782 21.890625 9.050782s15.859375-3.019532 21.890625-9.050782zm0 0"/><path d="m317.109375 200.988281c-4.273437 4.273438-11.226563 4.273438-15.5 0-3.90625-3.902343-10.238281-3.902343-14.140625 0-3.90625 3.90625-3.90625 10.238281 0 14.144531 6.035156 6.035157 13.960938 9.050782 21.890625 9.050782 7.925781 0 15.855469-3.015625 21.890625-9.050782 3.90625-3.90625 3.90625-10.238281 0-14.144531-3.902344-3.902343-10.234375-3.902343-14.140625 0zm0 0"/><path d="m289.40625 172.296875h30.699219c5.523437 0 10-4.480469 10-10 0-5.523437-4.476563-10-10-10h-30.699219c-5.523438 0-10 4.476563-10 10 0 5.519531 4.476562 10 10 10zm0 0"/><path d="m336.496094 491.976562c-2.628906 0-5.207032 1.070313-7.070313 2.929688-1.859375 1.859375-2.929687 4.441406-2.929687 7.070312 0 2.628907 1.070312 5.210938 2.929687 7.070313 1.863281 1.867187 4.441407 2.929687 7.070313 2.929687 2.632812 0 5.210937-1.0625 7.070312-2.929687 1.859375-1.859375 2.929688-4.441406 2.929688-7.070313 0-2.628906-1.070313-5.210937-2.929688-7.070312s-4.4375-2.929688-7.070312-2.929688zm0 0"/></svg>